<?xml version="1.0" standalone="no"?>
<!DOCTYPE svg PUBLIC "-//W3C//DTD SVG 20010904//EN"
 "http://www.w3.org/TR/2001/REC-SVG-20010904/DTD/svg10.dtd">
<svg version="1.0" xmlns="http://www.w3.org/2000/svg"
 width="860.000000pt" height="587.000000pt" viewBox="0 0 860.000000 587.000000"
 preserveAspectRatio="xMidYMid meet">

<g transform="translate(0.000000,587.000000) scale(0.100000,-0.100000)"
fill="#000000" stroke="none">
<path d="M3529 5432 c-77 -40 -111 -98 -111 -186 0 -37 -4 -66 -9 -66 -38 0
-236 -36 -339 -61 -283 -70 -551 -201 -785 -384 -108 -85 -285 -270 -368 -385
-79 -112 -183 -317 -226 -448 -33 -100 -71 -271 -71 -321 l0 -31 2005 0 2005
0 -6 48 c-29 238 -132 507 -275 718 -305 453 -824 766 -1404 849 -55 8 -106
15 -112 15 -9 0 -11 12 -7 43 17 122 -86 237 -214 237 -16 0 -54 -13 -83 -28z"/>
<path d="M1360 3290 l0 -130 1008 -2 1009 -3 -367 -770 c-202 -424 -372 -769
-378 -768 -6 2 -300 150 -652 329 -353 179 -643 324 -644 323 -12 -13 -426
-793 -426 -802 0 -19 108 -154 179 -224 206 -203 370 -200 469 9 49 103 66
179 66 311 1 64 4 116 7 115 3 -2 270 -137 593 -301 323 -164 593 -296 599
-294 7 3 214 431 461 952 434 912 451 946 474 940 42 -11 462 -222 663 -333
1155 -643 1981 -1373 2404 -2125 33 -59 63 -107 66 -107 3 0 189 90 413 201
l406 200 0 62 c0 229 -59 432 -144 501 -31 26 -48 31 -104 34 -62 3 -73 1
-151 -39 -106 -53 -226 -169 -286 -277 -22 -39 -42 -71 -45 -71 -3 0 -36 44
-75 97 -211 293 -539 633 -910 943 -404 337 -1006 733 -1550 1020 l-140 74
813 3 812 2 0 130 0 130 -2285 0 -2285 0 0 -130z"/>
</g>
</svg>
